<svg xmlns="http://www.w3.org/2000/svg" width="109.266" height="94.913" viewBox="0 0 109.266 94.913"><defs><style>.a{fill:#fb0009;}.b{fill:#48c984;}</style></defs><g transform="translate(-153.107 -246.299)"><path class="a" d="M170.591,255.456v23.683l10.765-2.014c0-7.078.192-14.122-.089-21.146-.122-3.056.877-4.257,3.74-4.957,5.213-1.275,10.308-3.025,15.5-4.412a8.558,8.558,0,0,1,4.26-.076c5.839,1.591,11.621,3.388,17.608,5.166-1.685,2.7-3.251,5.338-4.99,7.859-.273.4-1.38.479-2.006.324-2.447-.608-4.856-1.369-7.523-2.144v72.2l34.59-10.342V298.8l9.943-1.922v20.286c0,9.743,0,9.729-9.226,12.491-12.444,3.727-24.862,7.548-37.342,11.149a11.289,11.289,0,0,1-5.952.014c-13.982-4.036-27.91-8.261-41.85-12.442-3.839-1.151-4.9-2.566-4.9-6.561q-.017-28.085,0-56.171c0-3.86,1.082-5.322,4.7-6.414C161.913,257.993,166.026,256.8,170.591,255.456Z" transform="translate(0 0)"/><path class="b" d="M271.824,274.465A19.4,19.4,0,0,1,291.276,254.8a19.752,19.752,0,0,1,19.976,19.6,20.1,20.1,0,0,1-19.9,19.824A19.753,19.753,0,0,1,271.824,274.465Zm16.827,7.144,11.878-11.891-3.073-3.59-8.475,8.774-3.411-3.177-3.85,3.12Z" transform="translate(-48.878 -3.499)"/></g></svg>